<svg xmlns="http://www.w3.org/2000/svg" xmlns:xlink="http://www.w3.org/1999/xlink" width="500" zoomAndPan="magnify" viewBox="0 0 375 374.999991" height="500" preserveAspectRatio="xMidYMid meet" version="1.0"><defs><clipPath id="1d42eb9bca"><path d="M 274.226562 130.175781 L 308.394531 130.175781 L 308.394531 261.953125 L 274.226562 261.953125 Z M 274.226562 130.175781 " clip-rule="nonzero"/></clipPath><clipPath id="74496ed073"><path d="M 231 130.175781 L 275 130.175781 L 275 253 L 231 253 Z M 231 130.175781 " clip-rule="nonzero"/></clipPath><clipPath id="a2c882cff7"><path d="M 187 130.175781 L 232 130.175781 L 232 262 L 187 262 Z M 187 130.175781 " clip-rule="nonzero"/></clipPath><clipPath id="679418ad7a"><path d="M 144 130.175781 L 188 130.175781 L 188 257 L 144 257 Z M 144 130.175781 " clip-rule="nonzero"/></clipPath><clipPath id="6ec1667184"><path d="M 101 130.175781 L 145 130.175781 L 145 258 L 101 258 Z M 101 130.175781 " clip-rule="nonzero"/></clipPath><clipPath id="e55dfdb970"><path d="M 63.894531 130.175781 L 102 130.175781 L 102 262 L 63.894531 262 Z M 63.894531 130.175781 " clip-rule="nonzero"/></clipPath></defs><g clip-path="url(#1d42eb9bca)"><path fill="#ef3877" d="M 274.355469 128.46875 L 310.910156 128.46875 L 310.910156 245.078125 C 309.65625 248.496094 308.8125 249.992188 308.394531 249.53125 C 307.777344 248.84375 304.796875 253.089844 304.578125 254.96875 C 304.484375 256.023438 302.726562 258.472656 301.898438 259.601562 C 301.496094 257.222656 301.097656 254.160156 301.199219 251.738281 C 301.304688 248.8125 300.644531 248.386719 297.050781 249.121094 C 294.765625 249.589844 294.609375 249.785156 293.664062 253.664062 C 292.824219 257.085938 292.441406 257.71875 291.230469 257.675781 C 288.785156 257.585938 287.566406 258.78125 288.367188 260.476562 C 289.746094 262.660156 286.796875 262.015625 286.269531 261.132812 C 286.050781 260.722656 285.503906 260.378906 285.050781 260.363281 C 279.835938 258.886719 274.929688 254.050781 274.355469 247.226562 L 274.355469 128.46875 " fill-opacity="1" fill-rule="nonzero"/></g><g clip-path="url(#74496ed073)"><path fill="#f79b41" d="M 231.0625 128.46875 L 231.0625 248.269531 C 232.375 247.878906 234.417969 249.644531 235.609375 250.46875 L 235.765625 248.945312 C 235.964844 247.03125 236.636719 246.828125 240.3125 247.582031 C 242.347656 247.996094 243.214844 248.453125 243.0625 249.007812 C 242.617188 250.648438 242.867188 251.574219 243.691406 251.308594 C 244.15625 251.164062 244.511719 251.269531 244.484375 251.550781 C 244.453125 251.832031 244.792969 252.074219 245.242188 252.089844 C 246.363281 252.144531 246.03125 250.363281 246.851562 250.027344 C 248.054688 249.035156 248.816406 244.429688 250.082031 244.976562 C 251.246094 245.203125 250.414062 247.804688 251.34375 248.425781 C 252.199219 249.929688 254.167969 245.863281 255.074219 246.132812 C 256.03125 246.203125 254.296875 247.097656 255.503906 247.121094 C 255.96875 247.140625 256.632812 246.613281 256.984375 245.957031 C 258.0625 243.929688 259.910156 244.585938 259.683594 246.914062 C 259.339844 250.410156 260.867188 246.617188 261.957031 248.332031 C 263.054688 249.585938 262.445312 247.652344 263.550781 248.125 C 263.945312 248.289062 264.628906 247.503906 265.0625 246.394531 C 265.859375 244.199219 266.816406 243.550781 267.972656 241.988281 C 268.613281 241.058594 268.632812 241.0625 269.109375 242 C 269.742188 243.242188 270.839844 242.367188 271.144531 240.382812 C 271.988281 236.238281 274.195312 245.511719 274.351562 247.226562 L 274.351562 128.46875 L 231.0625 128.46875 " fill-opacity="1" fill-rule="nonzero"/></g><g clip-path="url(#a2c882cff7)"><path fill="#f9db3f" d="M 231.0625 128.46875 L 231.0625 248.269531 C 229.933594 248.785156 228.144531 251.589844 227.964844 253.289062 C 227.914062 253.792969 226.867188 254.695312 225.632812 255.300781 C 221.25 257.296875 223.796875 259.160156 217.101562 258.207031 C 212.820312 257.65625 208.539062 258.296875 206.011719 260.226562 C 204.746094 262.679688 201.875 259.21875 198.796875 259.976562 C 195.234375 260.664062 190.960938 256.859375 187.773438 256.738281 L 187.773438 128.46875 L 231.0625 128.46875 " fill-opacity="1" fill-rule="nonzero"/></g><g clip-path="url(#679418ad7a)"><path fill="#6fcb7b" d="M 187.773438 128.46875 L 187.773438 256.738281 C 187.128906 256.582031 186.65625 256.1875 186.535156 255.65625 C 185.015625 249.066406 184.789062 248.460938 184.074219 249.121094 C 183.425781 250.019531 181.160156 249.382812 180.871094 250.46875 C 180.753906 251.628906 179.636719 251.261719 178.765625 249.777344 C 178.324219 249.027344 178.242188 247.050781 178.578125 245.382812 C 179.296875 241.835938 178.476562 241.757812 176.515625 245.195312 C 175.21875 247.464844 173.695312 248.792969 173.824219 247.53125 C 173.898438 246.839844 171.980469 245.519531 170.84375 245.476562 C 169.425781 245.675781 168.867188 248.066406 167.121094 248.289062 C 166.207031 248.539062 165.261719 249.464844 164.867188 250.5 C 164.109375 252.5 160.519531 254.324219 159.15625 253.40625 C 157.738281 252.652344 156.238281 253.652344 155.035156 251.75 C 153.832031 249.574219 150.941406 250.957031 150.398438 248.496094 C 150.234375 246.90625 146.734375 244.003906 146.53125 242.65625 C 146.71875 241.417969 145.023438 243.511719 144.496094 243.351562 L 144.496094 128.46875 L 187.773438 128.46875 " fill-opacity="1" fill-rule="nonzero"/></g><g clip-path="url(#6ec1667184)"><path fill="#65a5df" d="M 144.496094 243.351562 C 144.085938 242.992188 140.3125 244.402344 142.660156 244.445312 C 143.832031 244.3125 144.273438 245.96875 143.277344 245.789062 C 142.496094 245.265625 139.746094 246.933594 139.292969 248.207031 C 139.058594 248.867188 138.429688 249.34375 137.898438 249.257812 C 137.363281 249.171875 136.652344 249.625 136.3125 250.257812 C 135.84375 251.617188 133.59375 251.445312 133.265625 252.601562 C 133.203125 253.226562 132.941406 253.234375 131.628906 252.675781 C 128.78125 251.523438 127.667969 253.5625 124.226562 252.3125 C 121.136719 251.253906 119.554688 252.496094 118.359375 254.34375 C 118.175781 255.605469 115.054688 257.019531 112.695312 256.902344 C 111.417969 256.84375 109.394531 256.902344 108.203125 257.039062 C 105.925781 257.679688 103.339844 255.300781 101.207031 254.351562 L 101.207031 128.46875 L 144.496094 128.46875 L 144.496094 243.351562 " fill-opacity="1" fill-rule="nonzero"/></g><g clip-path="url(#e55dfdb970)"><path fill="#5a4faa" d="M 62.65625 128.46875 L 62.65625 236.582031 C 63.351562 238.296875 63.605469 241.898438 65.945312 241.363281 C 67.730469 241.09375 67.808594 241.367188 66.308594 242.613281 C 65.445312 243.332031 65.414062 243.65625 66.152344 244.152344 C 66.667969 244.5 67.042969 245.144531 67 245.582031 C 67.191406 247.050781 70.425781 247.945312 69.804688 250.058594 C 69.683594 251.222656 70.050781 251.988281 70.816406 252.195312 C 72.613281 252.277344 70.972656 256.527344 72.679688 256.464844 C 74.125 256.519531 76.859375 258.578125 77.101562 259.789062 C 77.484375 261.695312 80.011719 261.332031 81.960938 259.09375 C 83.53125 257.289062 84.230469 256.953125 86.839844 256.757812 C 90.214844 256.507812 93.210938 255.609375 92.429688 255.082031 C 92.152344 254.894531 92.308594 254.75 92.78125 254.769531 C 93.871094 254.941406 94.8125 251.421875 95.777344 251.476562 C 96.167969 251.492188 97.03125 251.402344 97.691406 251.28125 C 99.351562 250.671875 99.144531 254.015625 100.382812 254.082031 C 100.542969 254.085938 100.839844 254.1875 101.207031 254.351562 L 101.207031 128.46875 L 62.65625 128.46875 " fill-opacity="1" fill-rule="nonzero"/></g><path fill="#ffffff" d="M 93.796875 211.929688 C 93.671875 211.929688 93.550781 211.929688 93.425781 211.929688 C 91.945312 211.929688 91.390625 211.867188 91.390625 210.386719 C 91.390625 208.65625 93.242188 205.882812 94.105469 204.769531 C 96.945312 201.007812 97.871094 200.453125 101.203125 197.304688 L 104.535156 194.34375 C 104.964844 194.035156 105.273438 193.847656 105.644531 193.480469 C 106.199219 193.109375 106.382812 192.800781 107 192.617188 C 107.308594 196.132812 107.558594 198.046875 105.644531 201.871094 C 105.335938 202.671875 104.78125 203.351562 104.347656 204.152344 C 103.792969 205.019531 103.359375 205.511719 102.683594 206.3125 C 101.015625 208.535156 96.636719 211.929688 93.796875 211.929688 Z M 76.890625 176.078125 C 76.890625 179.597656 78.1875 182.0625 80.839844 183.050781 C 83.617188 184.101562 86.949219 183.976562 90.835938 184.039062 L 95.832031 184.410156 C 100.707031 184.964844 103.976562 186.199219 106.199219 190.394531 L 101.261719 194.464844 C 97.929688 197.367188 95.03125 199.894531 92.316406 203.660156 C 90.464844 206.128906 89.417969 208.101562 89.417969 211.125 C 89.417969 213.71875 92.316406 213.964844 94.042969 213.964844 C 100.152344 213.964844 109.40625 204.09375 109.40625 195.390625 C 109.40625 193.847656 109.097656 192.492188 108.789062 191.195312 C 109.285156 190.457031 113.914062 186.878906 115.207031 185.828125 L 119.15625 182.621094 C 121.6875 180.152344 123.785156 178.484375 126.5 175.832031 C 129.277344 173.054688 128.164062 174.660156 128.164062 173.054688 C 127.855469 172.996094 127.609375 172.871094 127.300781 172.871094 C 126.808594 172.871094 126.253906 173.242188 124.832031 174.722656 C 124.03125 175.523438 123.289062 176.015625 122.488281 176.820312 L 117.738281 181.015625 C 114.960938 183.238281 110.519531 187.246094 107.804688 189.035156 C 107.125 186.445312 103.175781 184.039062 100.769531 183.296875 C 96.449219 181.878906 93.613281 182.25 89.230469 182.003906 C 85.898438 181.878906 80.714844 182.003906 79.542969 178.855469 C 78.925781 177.066406 79.171875 175.277344 79.421875 173.363281 C 79.976562 170.277344 82.011719 164.601562 83.800781 161.824219 C 84.972656 159.667969 85.652344 158.308594 87.316406 155.777344 L 94.597656 147.078125 C 95.15625 146.398438 95.648438 146.152344 96.265625 145.597656 C 97.253906 144.609375 98.855469 143.625 100.027344 142.882812 C 101.695312 141.957031 103.484375 141.277344 105.210938 141.277344 C 107.1875 141.277344 108.976562 142.144531 110.210938 144.488281 C 112.800781 149.484375 111.753906 156.519531 110.890625 161.765625 C 110.582031 163 108.480469 170.277344 110.394531 170.277344 C 111.753906 170.277344 112 168.613281 112.429688 166.699219 C 113.605469 162.320312 114.777344 157.136719 114.777344 152.261719 C 114.777344 145.90625 112.0625 139.121094 106.199219 138.6875 C 100.152344 138.6875 95.894531 142.203125 91.761719 146.214844 C 89.417969 148.683594 86.085938 152.753906 84.480469 155.65625 C 80.902344 161.269531 76.890625 169.476562 76.890625 176.078125 Z M 76.890625 176.078125 " fill-opacity="1" fill-rule="nonzero"/><path fill="#ffffff" d="M 126.0625 175.894531 C 126.0625 177.992188 125.753906 181.015625 128.589844 181.015625 C 130.503906 181.015625 133.40625 176.324219 134.390625 174.597656 C 134.761719 173.917969 135.625 172.5 136.121094 172.191406 C 136.121094 175.152344 136.367188 180.273438 140.4375 180.273438 C 142.289062 180.273438 144.324219 178.980469 145.992188 177.4375 C 146.730469 176.757812 149.570312 174.414062 149.570312 173.363281 C 149.570312 172.6875 149.078125 172.5625 148.582031 172.5625 C 147.410156 172.5625 143.339844 178.300781 140.625 178.300781 C 139.449219 178.300781 138.527344 177.25 138.15625 174.289062 C 137.96875 172.6875 138.773438 168.613281 137.105469 168.613281 C 135.933594 168.613281 135.5625 169.601562 134.761719 170.773438 L 131.058594 176.203125 C 130.441406 177.003906 129.765625 178.175781 128.777344 178.484375 C 127.851562 174.351562 131.613281 167.871094 131.613281 167.625 C 131.613281 167.070312 131.429688 167.070312 131.367188 166.640625 C 130.9375 166.390625 130.566406 166.332031 130.257812 166.332031 C 129.765625 166.332031 129.332031 166.578125 128.898438 167.070312 C 127.359375 169.046875 126.0625 173.242188 126.0625 175.894531 Z M 126.0625 175.894531 " fill-opacity="1" fill-rule="nonzero"/><path fill="#ffffff" d="M 151.113281 187.246094 C 151.667969 184.902344 151.605469 185.148438 153.148438 183.730469 L 156.234375 181.078125 C 155.742188 182.929688 153.148438 186.136719 151.113281 187.246094 Z M 152.65625 181.816406 C 152.839844 179.535156 155.617188 174.226562 156.851562 174.226562 C 157.222656 174.226562 157.40625 174.660156 157.40625 175.648438 C 157.40625 178.425781 157.652344 177.621094 154.011719 180.707031 C 153.703125 180.953125 153.703125 180.953125 153.335938 181.199219 C 153.027344 181.507812 153.027344 181.570312 152.65625 181.816406 Z M 146.855469 183.175781 C 146.855469 188.417969 147.535156 193.910156 148.273438 199.09375 C 148.398438 200.203125 148.398438 200.761719 149.324219 200.761719 C 150.679688 200.761719 149.816406 197.429688 149.816406 195.144531 C 149.816406 194.035156 150.125 189.839844 151.050781 189.285156 C 151.484375 188.976562 152.160156 188.726562 152.65625 188.480469 C 157.714844 185.582031 158.824219 179.164062 159.382812 178.546875 C 160.183594 177.558594 166.167969 174.042969 166.167969 173.179688 C 166.167969 172.625 165.984375 172.4375 165.613281 172.4375 C 164.625 172.4375 162.40625 174.289062 161.230469 175.09375 C 160.738281 175.402344 160 176.015625 159.503906 176.140625 C 159.503906 174.414062 158.640625 172.316406 156.851562 172.316406 C 152.59375 172.316406 150.929688 183.914062 149.507812 184.964844 C 149.507812 178.792969 150.003906 173.363281 151.175781 167.503906 C 151.605469 165.464844 151.792969 165.835938 151.421875 164.417969 C 151.113281 164.230469 150.804688 164.171875 150.558594 164.171875 C 147.90625 164.171875 146.855469 180.707031 146.855469 183.175781 Z M 146.855469 183.175781 " fill-opacity="1" fill-rule="nonzero"/><path fill="#ffffff" d="M 166.972656 172.253906 C 167.402344 170.710938 169.4375 168.304688 171.105469 167.996094 C 170.921875 169.972656 168.515625 171.453125 166.972656 172.253906 Z M 164.195312 173.734375 C 164.195312 175.460938 164.132812 177.003906 165.613281 178.484375 C 166.664062 179.535156 167.898438 179.964844 169.191406 179.964844 C 172.957031 179.964844 177.214844 176.203125 179.496094 173.917969 C 180.050781 173.242188 180.050781 173.179688 179.867188 172.253906 C 178.015625 172.253906 179.003906 172.5 176.472656 174.476562 C 176.042969 174.785156 175.855469 175.03125 175.363281 175.402344 C 174.128906 176.324219 171.539062 178.117188 169.378906 178.117188 C 168.636719 178.117188 167.898438 177.867188 167.339844 177.3125 C 166.292969 176.265625 166.414062 175.277344 166.414062 173.980469 C 168.328125 173.859375 170.550781 172.070312 171.539062 170.957031 C 173.449219 168.550781 173.449219 166.082031 170.734375 166.082031 C 167.773438 166.082031 164.195312 170.648438 164.195312 173.734375 Z M 164.195312 173.734375 " fill-opacity="1" fill-rule="nonzero"/><path fill="#ffffff" d="M 178.382812 183.175781 C 180.296875 183.175781 179.554688 181.078125 179.925781 179.472656 C 180.171875 177.992188 180.726562 176.757812 181.34375 175.710938 C 182.332031 174.105469 182.640625 174.105469 184.984375 174.105469 C 185.664062 174.105469 186.589844 174.167969 187.390625 174.167969 C 188.625 174.167969 189.613281 174.042969 189.613281 173.179688 C 189.613281 172.378906 187.699219 172.253906 185.910156 172.253906 C 184.863281 172.253906 183.8125 172.316406 183.257812 172.316406 C 181.34375 172.316406 180.976562 173.488281 180.050781 174.105469 C 180.050781 173.300781 180.171875 173.363281 180.171875 172.5 C 180.171875 171.882812 180.171875 171.144531 180.234375 170.527344 C 180.417969 168.796875 180.726562 167.625 179.0625 167.625 C 177.703125 167.625 177.582031 174.042969 177.582031 175.152344 C 177.644531 176.695312 177.582031 178.238281 177.644531 179.71875 C 177.644531 180.152344 177.148438 183.175781 178.382812 183.175781 Z M 178.382812 183.175781 " fill-opacity="1" fill-rule="nonzero"/><path fill="#ffffff" d="M 192.328125 174.042969 C 193.007812 174.042969 201.769531 173.488281 202.878906 173.242188 C 204.175781 172.933594 206.335938 172.808594 206.335938 171.761719 C 206.335938 171.328125 204.976562 171.144531 203.128906 171.144531 C 199.425781 171.144531 193.808594 171.761719 193.5625 171.820312 C 190.109375 172.5 191.527344 174.042969 192.328125 174.042969 Z M 192.328125 174.042969 " fill-opacity="1" fill-rule="nonzero"/><path fill="#ffffff" d="M 237.617188 171.144531 C 238.292969 169.785156 242.242188 164.480469 243.539062 162.441406 C 247.179688 156.457031 251.621094 147.324219 250.511719 140.414062 C 249.957031 137.144531 248.351562 135.539062 246.378906 135.539062 C 241.503906 135.539062 235.332031 145.105469 232.742188 149.421875 C 229.285156 155.839844 226.140625 163.121094 224.042969 170.15625 L 223.175781 172.933594 C 222.929688 173.734375 222.746094 174.96875 222.191406 175.710938 C 222.191406 174.722656 222.375 174.042969 222.5625 172.996094 L 223.484375 165.035156 C 224.042969 161.332031 224.597656 157.816406 224.78125 154.113281 C 224.96875 152.140625 225.214844 150.65625 225.214844 148.558594 C 225.214844 145.226562 225.644531 140.785156 223.546875 138.195312 C 222.992188 137.453125 222.375 137.144531 221.695312 137.144531 C 218.796875 137.144531 215.589844 143.5 214.722656 145.351562 L 212.8125 149.546875 C 211.390625 153.371094 210.097656 157.382812 209.664062 161.515625 C 209.355469 164.109375 209.171875 167.070312 210.21875 169.476562 C 210.835938 170.710938 211.578125 171.328125 212.875 171.328125 C 213.304688 171.328125 213.859375 171.265625 214.414062 171.144531 C 214.972656 168.675781 212.8125 170.773438 211.886719 168.367188 C 211.207031 166.390625 211.453125 163.121094 211.761719 160.902344 C 212.6875 154.605469 215.28125 147.882812 218.734375 142.699219 C 219.351562 141.585938 220.277344 139.859375 221.636719 139.738281 C 221.945312 140.910156 222.128906 141.835938 222.375 143.191406 C 222.5 144.363281 222.375 146.277344 222.375 147.574219 C 222.375 150.101562 222.066406 152.816406 221.636719 155.347656 C 220.585938 165.652344 218.921875 175.710938 217.996094 186.136719 L 216.824219 197.738281 C 216.699219 199.339844 216.453125 200.203125 217.996094 200.511719 C 218.921875 200.082031 218.980469 199.957031 219.230469 198.910156 L 220.402344 191.074219 C 221.019531 187.742188 221.945312 184.839844 222.746094 181.632812 C 225.832031 169.414062 232.554688 149.855469 241.257812 141.15625 C 242.367188 140.046875 244.527344 137.886719 246.070312 137.886719 C 246.871094 137.886719 247.550781 138.503906 247.859375 140.105469 C 248.96875 145.660156 244.773438 154.914062 242.859375 158.371094 C 239.898438 163.429688 236.503906 167.75 233.234375 172.5 C 232.804688 173.054688 232.496094 173.550781 232.0625 174.167969 C 231.382812 174.96875 229.59375 177.375 231.632812 177.746094 C 231.816406 177.746094 231.9375 177.808594 232.0625 177.808594 C 232.433594 177.808594 232.496094 177.621094 232.742188 177.5 C 235.519531 175.710938 236.011719 174.042969 241.132812 172.378906 C 241.875 172.128906 242.613281 172.007812 243.230469 172.007812 C 249.03125 172.007812 249.339844 181.757812 248.597656 186.507812 L 248.597656 186.691406 C 248.289062 187.804688 247.304688 188.050781 245.453125 189.097656 C 238.851562 192.925781 233.113281 195.824219 226.941406 200.636719 C 224.226562 202.734375 221.574219 205.574219 219.96875 208.65625 C 216.453125 215.445312 220.03125 220.628906 226.078125 220.628906 C 229.78125 220.628906 234.40625 218.714844 238.910156 214.210938 C 245.207031 207.917969 249.09375 199.710938 250.695312 191.011719 C 251.4375 187.371094 250.695312 188.851562 255.203125 185.519531 C 256.1875 184.78125 257.113281 184.101562 257.976562 183.238281 L 263.160156 178.425781 C 263.65625 178.054688 263.964844 177.746094 264.332031 177.25 C 264.949219 176.757812 265.074219 176.449219 265.503906 175.832031 C 266.0625 175.402344 266.308594 175.03125 266.738281 174.414062 C 267.355469 173.609375 267.292969 173.488281 267.046875 172.5 C 266.925781 172.5 266.800781 172.5 266.679688 172.5 C 265.074219 172.5 265.136719 173.242188 264.023438 174.476562 C 262.542969 176.015625 260.136719 178.546875 258.59375 179.84375 L 255.632812 182.3125 C 254.769531 182.988281 252.484375 185.027344 251.4375 185.273438 C 251.4375 178.609375 251.066406 170.15625 243.785156 169.601562 C 243.601562 169.601562 243.417969 169.539062 243.230469 169.539062 C 241.195312 169.539062 239.40625 170.710938 237.617188 171.144531 Z M 225.953125 218.53125 C 220.769531 218.53125 218.734375 213.472656 223.734375 207.054688 C 224.90625 205.574219 227.066406 203.476562 228.484375 202.363281 L 233.914062 198.414062 L 248.042969 190.332031 C 248.042969 192.246094 246.070312 198.105469 245.265625 199.957031 C 242.183594 206.867188 238.046875 213.59375 231.074219 217.113281 C 229.839844 217.726562 227.742188 218.53125 225.953125 218.53125 Z M 225.953125 218.53125 " fill-opacity="1" fill-rule="nonzero"/><path fill="#ffffff" d="M 269.761719 183.667969 C 272.660156 183.667969 275.007812 180.953125 276.488281 179.410156 C 277.476562 178.425781 281.175781 174.289062 281.175781 173.117188 C 281.175781 172.5625 280.992188 172.378906 280.746094 172.378906 C 279.574219 172.378906 276.300781 176.757812 276.054688 177.066406 C 275.128906 178.238281 271.921875 181.507812 269.945312 181.507812 C 268.28125 181.507812 267.601562 177.867188 267.601562 176.015625 C 267.601562 169.722656 270.070312 166.949219 267.230469 166.949219 C 266 166.949219 265.382812 169.722656 265.195312 171.019531 C 264.515625 174.167969 264.640625 178.425781 266.121094 181.199219 C 266.800781 182.371094 268.097656 183.667969 269.761719 183.667969 Z M 267.789062 159.171875 C 267.789062 160.53125 268.589844 161.148438 269.453125 161.148438 C 270.6875 161.148438 271.984375 159.789062 270.8125 157.507812 C 270.441406 156.828125 270.007812 156.582031 269.578125 156.582031 C 268.652344 156.582031 267.789062 157.753906 267.789062 159.171875 Z M 267.789062 159.171875 " fill-opacity="1" fill-rule="nonzero"/><path fill="#ffffff" d="M 278.707031 177.191406 C 278.707031 179.410156 278.890625 180.460938 281.175781 180.460938 C 282.964844 180.460938 284.878906 174.660156 286.050781 173.859375 C 286.050781 176.511719 288.023438 179.71875 291.109375 179.71875 C 292.15625 179.71875 293.332031 179.347656 294.566406 178.484375 L 296.414062 177.003906 C 299.5625 173.980469 299.191406 172.4375 298.265625 172.4375 C 297.898438 172.4375 297.464844 172.625 297.15625 173.054688 C 296.292969 173.980469 296.105469 174.535156 294.933594 175.585938 C 293.578125 176.941406 292.28125 177.683594 291.109375 177.683594 C 289.8125 177.683594 288.703125 176.695312 288.210938 174.476562 C 287.652344 172.128906 288.703125 169.355469 286.542969 169.355469 C 285.742188 169.355469 283.210938 174.597656 281.976562 176.511719 L 281.484375 177.25 C 281.175781 177.621094 281.359375 177.375 281.175781 177.558594 C 281.175781 175.523438 282.039062 173.179688 282.839844 171.882812 C 284.628906 168.796875 285.863281 167.933594 286.789062 167.933594 C 287.960938 167.933594 288.703125 169.355469 289.566406 169.355469 C 291.171875 169.355469 289.566406 165.835938 286.667969 165.835938 C 282.347656 165.835938 278.707031 173.671875 278.707031 177.191406 Z M 278.707031 177.191406 " fill-opacity="1" fill-rule="nonzero"/><path fill="#000000" d="M 90.773438 226.089844 L 91.144531 226.089844 L 92.359375 235.472656 L 93.003906 235.472656 L 93.976562 227.933594 L 94.949219 235.472656 L 95.59375 235.472656 L 96.808594 226.089844 L 97.195312 226.089844 L 97.195312 225.460938 C 97.195312 225.460938 97.195312 225.445312 97.195312 225.445312 L 95.964844 225.445312 C 95.949219 225.445312 95.949219 225.460938 95.949219 225.460938 L 95.949219 226.089844 C 95.949219 226.089844 95.949219 226.089844 95.964844 226.089844 L 96.164062 226.089844 L 95.277344 232.96875 L 94.390625 226.089844 L 94.589844 226.089844 L 94.589844 225.460938 C 94.589844 225.460938 94.589844 225.445312 94.589844 225.445312 L 93.363281 225.445312 C 93.363281 225.445312 93.363281 225.460938 93.363281 225.460938 L 93.363281 226.089844 L 93.574219 226.089844 L 92.675781 232.96875 L 91.789062 226.089844 L 92.003906 226.089844 L 92.003906 225.460938 C 92.003906 225.460938 92.003906 225.445312 92.003906 225.445312 L 90.773438 225.445312 C 90.773438 225.445312 90.773438 225.460938 90.773438 225.460938 Z M 90.773438 226.089844 " fill-opacity="1" fill-rule="nonzero"/><path fill="#000000" d="M 105.488281 225.445312 C 105.488281 225.445312 105.488281 225.460938 105.488281 225.460938 L 105.488281 226.089844 L 105.785156 226.089844 L 105.785156 230.136719 L 103.828125 230.136719 L 103.828125 226.332031 C 103.828125 226.203125 103.925781 226.089844 104.070312 226.089844 L 104.128906 226.089844 L 104.128906 225.460938 C 104.128906 225.460938 104.128906 225.445312 104.128906 225.445312 L 102.898438 225.445312 C 102.898438 225.445312 102.898438 225.460938 102.898438 225.460938 L 102.898438 226.089844 L 103.183594 226.089844 L 103.183594 234.828125 L 102.898438 234.828125 L 102.898438 235.457031 C 102.898438 235.472656 102.898438 235.472656 102.898438 235.472656 L 104.128906 235.472656 C 104.128906 235.472656 104.128906 235.472656 104.128906 235.457031 L 104.128906 234.828125 L 103.828125 234.828125 L 103.828125 230.78125 L 105.785156 230.78125 L 105.785156 234.585938 C 105.785156 234.726562 105.671875 234.828125 105.542969 234.828125 L 105.488281 234.828125 L 105.488281 235.457031 C 105.488281 235.472656 105.488281 235.472656 105.488281 235.472656 L 106.714844 235.472656 C 106.714844 235.472656 106.714844 235.472656 106.714844 235.457031 L 106.714844 234.828125 L 106.429688 234.828125 L 106.429688 226.089844 L 106.714844 226.089844 L 106.714844 225.460938 C 106.714844 225.460938 106.714844 225.445312 106.714844 225.445312 Z M 105.488281 225.445312 " fill-opacity="1" fill-rule="nonzero"/><path fill="#000000" d="M 112.4375 235.472656 L 115.957031 235.472656 C 115.957031 235.472656 115.96875 235.472656 115.96875 235.457031 L 115.96875 233.855469 C 115.96875 233.839844 115.957031 233.839844 115.957031 233.839844 L 115.324219 233.839844 C 115.324219 233.839844 115.324219 233.839844 115.324219 233.855469 L 115.324219 234.828125 L 113.367188 234.828125 L 113.367188 230.75 L 115.027344 230.75 L 115.027344 230.136719 L 113.367188 230.136719 L 113.367188 226.332031 C 113.367188 226.203125 113.464844 226.089844 113.609375 226.089844 L 115.324219 226.089844 L 115.324219 227.074219 L 115.957031 227.074219 C 115.957031 227.074219 115.96875 227.074219 115.96875 227.074219 L 115.96875 225.460938 C 115.96875 225.460938 115.957031 225.445312 115.957031 225.445312 L 112.4375 225.445312 C 112.4375 225.445312 112.4375 225.460938 112.4375 225.460938 L 112.4375 226.089844 L 112.722656 226.089844 L 112.722656 234.585938 C 112.722656 234.726562 112.621094 234.828125 112.492188 234.828125 L 112.4375 234.828125 L 112.4375 235.457031 C 112.4375 235.472656 112.4375 235.472656 112.4375 235.472656 Z M 112.4375 235.472656 " fill-opacity="1" fill-rule="nonzero"/><path fill="#000000" d="M 121.730469 234.828125 L 121.675781 234.828125 L 121.675781 235.457031 C 121.675781 235.472656 121.675781 235.472656 121.675781 235.472656 L 122.90625 235.472656 C 122.90625 235.472656 122.90625 235.472656 122.90625 235.457031 L 122.90625 234.828125 L 122.605469 234.828125 L 122.605469 232.753906 L 123.578125 232.753906 C 123.589844 232.753906 123.589844 232.753906 123.589844 232.753906 C 124.121094 232.753906 124.5625 233.183594 124.5625 233.726562 L 124.5625 234.527344 C 124.5625 235.042969 124.980469 235.472656 125.492188 235.472656 C 125.492188 235.472656 125.492188 235.472656 125.492188 235.457031 L 125.492188 234.828125 C 125.335938 234.828125 125.207031 234.699219 125.207031 234.527344 L 125.207031 233.726562 C 125.207031 233.296875 125.035156 232.882812 124.722656 232.582031 C 124.664062 232.523438 124.605469 232.46875 124.550781 232.425781 C 124.605469 232.382812 124.664062 232.324219 124.722656 232.265625 C 125.035156 231.96875 125.207031 231.566406 125.207031 231.125 L 125.207031 227.074219 C 125.207031 226.632812 125.035156 226.230469 124.722656 225.929688 C 124.421875 225.617188 124.019531 225.445312 123.578125 225.445312 L 121.675781 225.445312 C 121.675781 225.445312 121.675781 225.460938 121.675781 225.460938 L 121.675781 226.089844 L 121.960938 226.089844 L 121.960938 234.585938 C 121.960938 234.726562 121.859375 234.828125 121.730469 234.828125 Z M 123.578125 232.109375 L 122.605469 232.109375 L 122.605469 226.332031 C 122.605469 226.203125 122.703125 226.089844 122.847656 226.089844 L 123.578125 226.089844 C 124.121094 226.089844 124.5625 226.53125 124.5625 227.074219 L 124.5625 231.125 C 124.5625 231.667969 124.121094 232.109375 123.589844 232.109375 C 123.589844 232.109375 123.589844 232.109375 123.578125 232.109375 Z M 123.578125 232.109375 " fill-opacity="1" fill-rule="nonzero"/><path fill="#000000" d="M 131.214844 235.472656 L 134.734375 235.472656 C 134.734375 235.472656 134.746094 235.472656 134.746094 235.457031 L 134.746094 233.855469 C 134.746094 233.839844 134.734375 233.839844 134.734375 233.839844 L 134.101562 233.839844 C 134.101562 233.839844 134.101562 233.839844 134.101562 233.855469 L 134.101562 234.828125 L 132.144531 234.828125 L 132.144531 230.75 L 133.804688 230.75 L 133.804688 230.136719 L 132.144531 230.136719 L 132.144531 226.332031 C 132.144531 226.203125 132.242188 226.089844 132.386719 226.089844 L 134.101562 226.089844 L 134.101562 227.074219 L 134.734375 227.074219 C 134.734375 227.074219 134.746094 227.074219 134.746094 227.074219 L 134.746094 225.460938 C 134.746094 225.460938 134.734375 225.445312 134.734375 225.445312 L 131.214844 225.445312 C 131.214844 225.445312 131.214844 225.460938 131.214844 225.460938 L 131.214844 226.089844 L 131.5 226.089844 L 131.5 234.585938 C 131.5 234.726562 131.398438 234.828125 131.269531 234.828125 L 131.214844 234.828125 L 131.214844 235.457031 C 131.214844 235.472656 131.214844 235.472656 131.214844 235.472656 Z M 131.214844 235.472656 " fill-opacity="1" fill-rule="nonzero"/><path fill="#000000" d="M 147.816406 235.472656 L 151.335938 235.472656 C 151.335938 235.472656 151.347656 235.472656 151.347656 235.457031 L 151.347656 233.855469 C 151.347656 233.839844 151.335938 233.839844 151.335938 233.839844 L 150.703125 233.839844 C 150.703125 233.839844 150.703125 233.839844 150.703125 233.855469 L 150.703125 234.828125 L 148.988281 234.828125 C 148.84375 234.828125 148.746094 234.726562 148.746094 234.585938 L 148.746094 226.089844 L 149.046875 226.089844 L 149.046875 225.460938 C 149.046875 225.460938 149.046875 225.445312 149.046875 225.445312 L 147.816406 225.445312 C 147.816406 225.445312 147.816406 225.460938 147.816406 225.460938 L 147.816406 226.089844 L 147.871094 226.089844 C 148 226.089844 148.101562 226.203125 148.101562 226.332031 L 148.101562 234.828125 L 147.816406 234.828125 L 147.816406 235.457031 C 147.816406 235.472656 147.816406 235.472656 147.816406 235.472656 Z M 147.816406 235.472656 " fill-opacity="1" fill-rule="nonzero"/><path fill="#000000" d="M 158.671875 235.472656 C 159.097656 235.472656 159.5 235.300781 159.816406 235 C 160.113281 234.683594 160.285156 234.285156 160.285156 233.855469 L 160.285156 227.074219 C 160.285156 226.632812 160.113281 226.230469 159.816406 225.929688 C 159.5 225.617188 159.097656 225.445312 158.671875 225.445312 C 158.226562 225.445312 157.828125 225.617188 157.527344 225.929688 C 157.210938 226.230469 157.054688 226.632812 157.054688 227.074219 L 157.054688 233.855469 C 157.054688 234.285156 157.210938 234.683594 157.527344 235 C 157.828125 235.300781 158.226562 235.472656 158.671875 235.472656 Z M 157.683594 227.074219 C 157.683594 226.53125 158.125 226.089844 158.671875 226.089844 C 159.199219 226.089844 159.644531 226.53125 159.644531 227.074219 L 159.644531 233.855469 C 159.644531 234.382812 159.199219 234.828125 158.671875 234.828125 C 158.125 234.828125 157.683594 234.382812 157.683594 233.855469 Z M 157.683594 227.074219 " fill-opacity="1" fill-rule="nonzero"/><path fill="#000000" d="M 165.992188 226.089844 L 166.363281 226.089844 L 167.578125 235.472656 L 168.222656 235.472656 L 169.4375 226.089844 L 169.808594 226.089844 L 169.808594 225.460938 C 169.808594 225.460938 169.808594 225.445312 169.808594 225.445312 L 168.582031 225.445312 C 168.582031 225.445312 168.582031 225.460938 168.582031 225.460938 L 168.582031 226.089844 L 168.792969 226.089844 L 167.894531 232.96875 L 167.007812 226.089844 L 167.222656 226.089844 L 167.222656 225.460938 C 167.222656 225.460938 167.222656 225.445312 167.222656 225.445312 L 165.992188 225.445312 C 165.992188 225.445312 165.992188 225.460938 165.992188 225.460938 Z M 165.992188 226.089844 " fill-opacity="1" fill-rule="nonzero"/><path fill="#000000" d="M 175.53125 235.472656 L 179.050781 235.472656 C 179.050781 235.472656 179.0625 235.472656 179.0625 235.457031 L 179.0625 233.855469 C 179.0625 233.839844 179.050781 233.839844 179.050781 233.839844 L 178.417969 233.839844 C 178.417969 233.839844 178.417969 233.839844 178.417969 233.855469 L 178.417969 234.828125 L 176.460938 234.828125 L 176.460938 230.75 L 178.121094 230.75 L 178.121094 230.136719 L 176.460938 230.136719 L 176.460938 226.332031 C 176.460938 226.203125 176.558594 226.089844 176.703125 226.089844 L 178.417969 226.089844 L 178.417969 227.074219 L 179.050781 227.074219 C 179.050781 227.074219 179.0625 227.074219 179.0625 227.074219 L 179.0625 225.460938 C 179.0625 225.460938 179.050781 225.445312 179.050781 225.445312 L 175.53125 225.445312 C 175.53125 225.445312 175.53125 225.460938 175.53125 225.460938 L 175.53125 226.089844 L 175.816406 226.089844 L 175.816406 234.585938 C 175.816406 234.726562 175.714844 234.828125 175.585938 234.828125 L 175.53125 234.828125 L 175.53125 235.457031 C 175.53125 235.472656 175.53125 235.472656 175.53125 235.472656 Z M 175.53125 235.472656 " fill-opacity="1" fill-rule="nonzero"/><path fill="#000000" d="M 192.132812 225.445312 C 192.132812 225.445312 192.132812 225.460938 192.132812 225.460938 L 192.132812 226.089844 L 192.417969 226.089844 L 192.417969 234.585938 C 192.417969 234.726562 192.316406 234.828125 192.1875 234.828125 L 192.132812 234.828125 L 192.132812 235.457031 C 192.132812 235.472656 192.132812 235.472656 192.132812 235.472656 L 193.363281 235.472656 C 193.363281 235.472656 193.363281 235.472656 193.363281 235.457031 L 193.363281 234.828125 L 193.0625 234.828125 L 193.0625 228.976562 L 193.90625 235.472656 L 194.550781 235.472656 L 195.378906 229.050781 L 195.378906 234.828125 L 195.078125 234.828125 L 195.078125 235.457031 C 195.078125 235.472656 195.078125 235.472656 195.078125 235.472656 L 196.308594 235.472656 C 196.308594 235.472656 196.308594 235.472656 196.308594 235.457031 L 196.308594 234.828125 L 196.023438 234.828125 L 196.023438 226.332031 C 196.023438 226.203125 196.121094 226.089844 196.25 226.089844 L 196.308594 226.089844 L 196.308594 225.460938 C 196.308594 225.460938 196.308594 225.445312 196.308594 225.445312 L 195.191406 225.445312 C 195.191406 225.445312 195.191406 225.460938 195.191406 225.460938 L 194.21875 232.96875 L 193.246094 225.460938 C 193.246094 225.460938 193.246094 225.445312 193.246094 225.445312 Z M 192.132812 225.445312 " fill-opacity="1" fill-rule="nonzero"/><path fill="#000000" d="M 202.03125 235.472656 L 205.550781 235.472656 C 205.550781 235.472656 205.5625 235.472656 205.5625 235.457031 L 205.5625 233.855469 C 205.5625 233.839844 205.550781 233.839844 205.550781 233.839844 L 204.917969 233.839844 C 204.917969 233.839844 204.917969 233.839844 204.917969 233.855469 L 204.917969 234.828125 L 202.960938 234.828125 L 202.960938 230.75 L 204.621094 230.75 L 204.621094 230.136719 L 202.960938 230.136719 L 202.960938 226.332031 C 202.960938 226.203125 203.058594 226.089844 203.203125 226.089844 L 204.917969 226.089844 L 204.917969 227.074219 L 205.550781 227.074219 C 205.550781 227.074219 205.5625 227.074219 205.5625 227.074219 L 205.5625 225.460938 C 205.5625 225.460938 205.550781 225.445312 205.550781 225.445312 L 202.03125 225.445312 C 202.03125 225.445312 202.03125 225.460938 202.03125 225.460938 L 202.03125 226.089844 L 202.316406 226.089844 L 202.316406 234.585938 C 202.316406 234.726562 202.214844 234.828125 202.085938 234.828125 L 202.03125 234.828125 L 202.03125 235.457031 C 202.03125 235.472656 202.03125 235.472656 202.03125 235.472656 Z M 202.03125 235.472656 " fill-opacity="1" fill-rule="nonzero"/><path fill="#000000" d="M 211.269531 235.472656 L 214.789062 235.472656 C 214.789062 235.472656 214.800781 235.472656 214.800781 235.457031 L 214.800781 233.855469 C 214.800781 233.839844 214.789062 233.839844 214.789062 233.839844 L 214.15625 233.839844 C 214.15625 233.839844 214.15625 233.839844 214.15625 233.855469 L 214.15625 234.828125 L 212.199219 234.828125 L 212.199219 230.75 L 213.859375 230.75 L 213.859375 230.136719 L 212.199219 230.136719 L 212.199219 226.332031 C 212.199219 226.203125 212.296875 226.089844 212.441406 226.089844 L 214.15625 226.089844 L 214.15625 227.074219 L 214.789062 227.074219 C 214.789062 227.074219 214.800781 227.074219 214.800781 227.074219 L 214.800781 225.460938 C 214.800781 225.460938 214.789062 225.445312 214.789062 225.445312 L 211.269531 225.445312 C 211.269531 225.445312 211.269531 225.460938 211.269531 225.460938 L 211.269531 226.089844 L 211.554688 226.089844 L 211.554688 234.585938 C 211.554688 234.726562 211.453125 234.828125 211.324219 234.828125 L 211.269531 234.828125 L 211.269531 235.457031 C 211.269531 235.472656 211.269531 235.472656 211.269531 235.472656 Z M 211.269531 235.472656 " fill-opacity="1" fill-rule="nonzero"/><path fill="#000000" d="M 220.503906 225.445312 C 220.503906 225.445312 220.503906 225.460938 220.503906 225.460938 L 220.503906 227.074219 L 221.132812 227.074219 L 221.132812 226.089844 L 221.789062 226.089844 L 221.789062 234.585938 C 221.789062 234.726562 221.691406 234.828125 221.5625 234.828125 L 221.503906 234.828125 C 221.503906 234.828125 221.488281 234.828125 221.488281 234.828125 L 221.488281 235.457031 C 221.488281 235.472656 221.503906 235.472656 221.503906 235.472656 L 222.734375 235.472656 C 222.734375 235.472656 222.734375 235.472656 222.734375 235.457031 L 222.734375 234.828125 L 222.433594 234.828125 L 222.433594 226.332031 C 222.433594 226.203125 222.535156 226.089844 222.664062 226.089844 L 223.09375 226.089844 L 223.09375 227.074219 L 223.734375 227.074219 L 223.734375 225.460938 C 223.734375 225.460938 223.734375 225.445312 223.734375 225.445312 Z M 220.503906 225.445312 " fill-opacity="1" fill-rule="nonzero"/><path fill="#000000" d="M 231.058594 225.445312 C 230.613281 225.445312 230.214844 225.617188 229.914062 225.929688 C 229.597656 226.230469 229.441406 226.632812 229.441406 227.074219 L 229.441406 229.164062 C 229.441406 229.59375 229.597656 229.992188 229.914062 230.308594 C 230.214844 230.609375 230.613281 230.78125 231.058594 230.78125 C 231.585938 230.78125 232.03125 231.222656 232.03125 231.753906 L 232.03125 233.855469 C 232.03125 234.382812 231.585938 234.828125 231.058594 234.828125 C 230.511719 234.828125 230.070312 234.382812 230.070312 233.855469 C 230.070312 233.855469 230.070312 233.839844 230.070312 233.839844 L 229.441406 233.839844 C 229.441406 233.839844 229.441406 233.855469 229.441406 233.855469 L 229.441406 235.472656 L 230.070312 235.472656 L 230.070312 235.140625 C 230.355469 235.355469 230.699219 235.472656 231.058594 235.472656 C 231.484375 235.472656 231.886719 235.300781 232.203125 235 C 232.5 234.683594 232.671875 234.285156 232.671875 233.855469 L 232.671875 231.753906 C 232.671875 231.324219 232.5 230.921875 232.203125 230.609375 C 231.886719 230.308594 231.484375 230.136719 231.058594 230.136719 C 230.511719 230.136719 230.070312 229.707031 230.070312 229.164062 L 230.070312 227.074219 C 230.070312 226.53125 230.511719 226.089844 231.058594 226.089844 C 231.585938 226.089844 232.03125 226.53125 232.03125 227.074219 L 232.671875 227.074219 C 232.671875 227.074219 232.671875 227.074219 232.671875 227.0625 L 232.671875 225.460938 C 232.671875 225.460938 232.671875 225.445312 232.671875 225.445312 L 232.03125 225.445312 C 232.03125 225.445312 232.03125 225.460938 232.03125 225.460938 L 232.03125 225.773438 C 231.742188 225.574219 231.414062 225.445312 231.058594 225.445312 Z M 231.058594 225.445312 " fill-opacity="1" fill-rule="nonzero"/><path fill="#000000" d="M 245.746094 225.460938 L 245.746094 226.089844 L 246.03125 226.089844 L 246.03125 234.585938 C 246.03125 234.726562 245.929688 234.828125 245.800781 234.828125 L 245.746094 234.828125 L 245.746094 235.457031 C 245.746094 235.472656 245.746094 235.472656 245.746094 235.472656 L 246.976562 235.472656 C 246.976562 235.472656 246.976562 235.472656 246.976562 235.457031 L 246.976562 234.828125 L 246.675781 234.828125 L 246.675781 232.753906 L 247.648438 232.753906 C 248.089844 232.753906 248.492188 232.582031 248.792969 232.265625 C 249.105469 231.96875 249.277344 231.566406 249.277344 231.125 L 249.277344 227.074219 C 249.277344 226.632812 249.105469 226.230469 248.792969 225.929688 C 248.492188 225.617188 248.089844 225.445312 247.648438 225.445312 L 245.746094 225.445312 C 245.746094 225.445312 245.746094 225.460938 245.746094 225.460938 Z M 246.675781 226.332031 C 246.675781 226.203125 246.773438 226.089844 246.917969 226.089844 L 247.648438 226.089844 C 248.191406 226.089844 248.632812 226.53125 248.632812 227.074219 L 248.632812 231.125 C 248.632812 231.667969 248.191406 232.109375 247.648438 232.109375 L 246.675781 232.109375 Z M 246.675781 226.332031 " fill-opacity="1" fill-rule="nonzero"/><path fill="#000000" d="M 255.039062 234.828125 L 254.984375 234.828125 L 254.984375 235.457031 C 254.984375 235.472656 254.984375 235.472656 254.984375 235.472656 L 256.214844 235.472656 C 256.214844 235.472656 256.214844 235.472656 256.214844 235.457031 L 256.214844 234.828125 L 255.914062 234.828125 L 255.914062 232.753906 L 256.886719 232.753906 C 256.898438 232.753906 256.898438 232.753906 256.898438 232.753906 C 257.429688 232.753906 257.871094 233.183594 257.871094 233.726562 L 257.871094 234.527344 C 257.871094 235.042969 258.289062 235.472656 258.800781 235.472656 C 258.800781 235.472656 258.800781 235.472656 258.800781 235.457031 L 258.800781 234.828125 C 258.644531 234.828125 258.515625 234.699219 258.515625 234.527344 L 258.515625 233.726562 C 258.515625 233.296875 258.34375 232.882812 258.03125 232.582031 C 257.972656 232.523438 257.914062 232.46875 257.859375 232.425781 C 257.914062 232.382812 257.972656 232.324219 258.03125 232.265625 C 258.34375 231.96875 258.515625 231.566406 258.515625 231.125 L 258.515625 227.074219 C 258.515625 226.632812 258.34375 226.230469 258.03125 225.929688 C 257.730469 225.617188 257.328125 225.445312 256.886719 225.445312 L 254.984375 225.445312 C 254.984375 225.445312 254.984375 225.460938 254.984375 225.460938 L 254.984375 226.089844 L 255.269531 226.089844 L 255.269531 234.585938 C 255.269531 234.726562 255.167969 234.828125 255.039062 234.828125 Z M 256.886719 232.109375 L 255.914062 232.109375 L 255.914062 226.332031 C 255.914062 226.203125 256.011719 226.089844 256.15625 226.089844 L 256.886719 226.089844 C 257.429688 226.089844 257.871094 226.53125 257.871094 227.074219 L 257.871094 231.125 C 257.871094 231.667969 257.429688 232.109375 256.898438 232.109375 C 256.898438 232.109375 256.898438 232.109375 256.886719 232.109375 Z M 256.886719 232.109375 " fill-opacity="1" fill-rule="nonzero"/><path fill="#000000" d="M 264.523438 235.472656 L 265.753906 235.472656 C 265.753906 235.472656 265.753906 235.472656 265.753906 235.457031 L 265.753906 234.828125 L 265.453125 234.828125 L 265.453125 226.332031 C 265.453125 226.203125 265.550781 226.089844 265.695312 226.089844 L 265.753906 226.089844 L 265.753906 225.460938 C 265.753906 225.460938 265.753906 225.445312 265.753906 225.445312 L 264.523438 225.445312 C 264.523438 225.445312 264.523438 225.460938 264.523438 225.460938 L 264.523438 226.089844 L 264.808594 226.089844 L 264.808594 234.585938 C 264.808594 234.726562 264.707031 234.828125 264.578125 234.828125 L 264.523438 234.828125 L 264.523438 235.457031 C 264.523438 235.472656 264.523438 235.472656 264.523438 235.472656 Z M 264.523438 235.472656 " fill-opacity="1" fill-rule="nonzero"/><path fill="#000000" d="M 271.511719 234.828125 L 271.457031 234.828125 L 271.457031 235.457031 C 271.457031 235.472656 271.457031 235.472656 271.457031 235.472656 L 273.359375 235.472656 C 273.800781 235.472656 274.203125 235.300781 274.503906 235 C 274.816406 234.683594 274.988281 234.285156 274.988281 233.855469 L 274.988281 227.074219 C 274.988281 226.632812 274.816406 226.230469 274.503906 225.929688 C 274.203125 225.617188 273.800781 225.445312 273.359375 225.445312 L 271.457031 225.445312 C 271.457031 225.445312 271.457031 225.460938 271.457031 225.460938 L 271.457031 226.089844 L 271.742188 226.089844 L 271.742188 234.585938 C 271.742188 234.726562 271.640625 234.828125 271.511719 234.828125 Z M 272.386719 226.332031 C 272.386719 226.203125 272.484375 226.089844 272.628906 226.089844 L 273.359375 226.089844 C 273.902344 226.089844 274.34375 226.53125 274.34375 227.074219 L 274.34375 233.855469 C 274.34375 234.382812 273.902344 234.828125 273.359375 234.828125 L 272.386719 234.828125 Z M 272.386719 226.332031 " fill-opacity="1" fill-rule="nonzero"/><path fill="#000000" d="M 280.695312 235.472656 L 284.214844 235.472656 C 284.214844 235.472656 284.226562 235.472656 284.226562 235.457031 L 284.226562 233.855469 C 284.226562 233.839844 284.214844 233.839844 284.214844 233.839844 L 283.582031 233.839844 C 283.582031 233.839844 283.582031 233.839844 283.582031 233.855469 L 283.582031 234.828125 L 281.625 234.828125 L 281.625 230.75 L 283.285156 230.75 L 283.285156 230.136719 L 281.625 230.136719 L 281.625 226.332031 C 281.625 226.203125 281.722656 226.089844 281.867188 226.089844 L 283.582031 226.089844 L 283.582031 227.074219 L 284.214844 227.074219 C 284.214844 227.074219 284.226562 227.074219 284.226562 227.074219 L 284.226562 225.460938 C 284.226562 225.460938 284.214844 225.445312 284.214844 225.445312 L 280.695312 225.445312 C 280.695312 225.445312 280.695312 225.460938 280.695312 225.460938 L 280.695312 226.089844 L 280.980469 226.089844 L 280.980469 234.585938 C 280.980469 234.726562 280.878906 234.828125 280.75 234.828125 L 280.695312 234.828125 L 280.695312 235.457031 C 280.695312 235.472656 280.695312 235.472656 280.695312 235.472656 Z M 280.695312 235.472656 " fill-opacity="1" fill-rule="nonzero"/></svg>